<svg width="1415" height="760" viewBox="0 0 1415 760" fill="none" xmlns="http://www.w3.org/2000/svg">
<path opacity="0.8" d="M21.609 9.35862L28.9993 17.5556L29.5404 18.1558L30.3393 18.034L41.3808 16.3517L35.6797 25.779L35.2503 26.4889L35.6236 27.23L40.5425 36.9954L29.6019 34.6841L28.8239 34.5197L28.2512 35.0714L20.1978 42.8292L19.1944 31.941L19.1183 31.1147L18.3779 30.7402L8.54738 25.7665L18.8027 21.3421L19.5446 21.022L19.6855 20.2263L21.609 9.35862Z" stroke="#C1BC3B" stroke-width="3"/>
<path opacity="0.8" d="M1393.5 721.417L1398.34 731.334L1398.7 732.06L1399.5 732.163L1410.58 733.589L1402.5 741.08L1401.89 741.644L1402.05 742.459L1404.08 753.202L1394.2 747.965L1393.5 747.592L1392.8 747.965L1382.92 753.202L1384.95 742.459L1385.11 741.644L1384.5 741.08L1376.42 733.589L1387.5 732.163L1388.3 732.06L1388.66 731.334L1393.5 721.417Z" stroke="#C1BC3B" stroke-width="3"/>
</svg>
