<svg width="48" height="48" viewBox="0 0 48 48" fill="none" xmlns="http://www.w3.org/2000/svg">
<path d="M36 28.5C37.1935 28.5 38.3381 28.0259 39.182 27.182C40.0259 26.3381 40.5 25.1935 40.5 24C40.5 22.8065 40.0259 21.6619 39.182 20.818C38.3381 19.9741 37.1935 19.5 36 19.5C34.8065 19.5 33.6619 19.9741 32.818 20.818C31.9741 21.6619 31.5 22.8065 31.5 24C31.5 25.1935 31.9741 26.3381 32.818 27.182C33.6619 28.0259 34.8065 28.5 36 28.5ZM36 27C35.2044 27 34.4413 26.6839 33.8787 26.1213C33.3161 25.5587 33 24.7956 33 24C33 23.2044 33.3161 22.4413 33.8787 21.8787C34.4413 21.3161 35.2044 21 36 21C36.7956 21 37.5587 21.3161 38.1213 21.8787C38.6839 22.4413 39 23.2044 39 24C39 24.7956 38.6839 25.5587 38.1213 26.1213C37.5587 26.6839 36.7956 27 36 27ZM24.75 13.125C24.75 14.0201 24.3944 14.8786 23.7615 15.5115C23.1285 16.1444 22.2701 16.5 21.375 16.5C20.4799 16.5 19.6215 16.1444 18.9885 15.5115C18.3556 14.8786 18 14.0201 18 13.125C18 12.2299 18.3556 11.3715 18.9885 10.7385C19.6215 10.1056 20.4799 9.75 21.375 9.75C22.2701 9.75 23.1285 10.1056 23.7615 10.7385C24.3944 11.3715 24.75 12.2299 24.75 13.125ZM15.75 19.125C15.75 19.5682 15.6627 20.0071 15.4931 20.4166C15.3235 20.826 15.0749 21.1981 14.7615 21.5115C14.4481 21.8249 14.076 22.0735 13.6666 22.2431C13.2571 22.4127 12.8182 22.5 12.375 22.5C11.9318 22.5 11.4929 22.4127 11.0834 22.2431C10.674 22.0735 10.3019 21.8249 9.98851 21.5115C9.67512 21.1981 9.42652 20.826 9.25691 20.4166C9.0873 20.0071 9 19.5682 9 19.125C9 18.2299 9.35558 17.3714 9.98851 16.7385C10.6215 16.1056 11.4799 15.75 12.375 15.75C13.2701 15.75 14.1286 16.1056 14.7615 16.7385C15.3944 17.3714 15.75 18.2299 15.75 19.125ZM12.375 33C12.8182 33 13.2571 32.9127 13.6666 32.7431C14.076 32.5735 14.4481 32.3249 14.7615 32.0115C15.0749 31.6981 15.3235 31.326 15.4931 30.9166C15.6627 30.5071 15.75 30.0682 15.75 29.625C15.75 29.1818 15.6627 28.7429 15.4931 28.3334C15.3235 27.924 15.0749 27.5519 14.7615 27.2385C14.4481 26.9251 14.076 26.6765 13.6666 26.5069C13.2571 26.3373 12.8182 26.25 12.375 26.25C11.4799 26.25 10.6215 26.6056 9.98851 27.2385C9.35558 27.8715 9 28.7299 9 29.625C9 30.5201 9.35558 31.3785 9.98851 32.0115C10.6215 32.6444 11.4799 33 12.375 33ZM24 36.375C24 37.2701 23.6444 38.1285 23.0115 38.7615C22.3785 39.3944 21.5201 39.75 20.625 39.75C19.7299 39.75 18.8715 39.3944 18.2385 38.7615C17.6056 38.1285 17.25 37.2701 17.25 36.375C17.25 35.4799 17.6056 34.6215 18.2385 33.9885C18.8715 33.3556 19.7299 33 20.625 33C21.5201 33 22.3785 33.3556 23.0115 33.9885C23.6444 34.6215 24 35.4799 24 36.375Z" fill="white"/>
<path d="M24.3 46.5C20.1125 46.1942 16.0689 44.8418 12.54 42.567C7.38242 39.5455 3.63424 34.6014 2.11796 28.8195C1.46444 26.3022 1.31979 23.6798 1.69249 21.106C2.06519 18.5321 2.94775 16.0585 4.28846 13.83C9.92396 4.52997 22.557 1.78047 33.6705 7.44597C40.299 10.8285 45.2565 16.7325 46.2975 22.491C46.6434 24.0799 46.6045 25.7285 46.1838 27.2993C45.7632 28.8701 44.9731 30.3175 43.8795 31.521C40.6425 35.055 36.465 35.0055 33.429 34.971H33.4185C31.401 34.935 30.141 34.971 29.8395 35.571C29.9445 36.033 30.1275 36.477 30.3795 36.8805C31.137 37.9459 31.5175 39.2335 31.4607 40.5395C31.4039 41.8456 30.9131 43.0953 30.066 44.091C29.3547 44.9087 28.4645 45.5514 27.4645 45.9692C26.4644 46.387 25.3816 46.5686 24.3 46.5ZM21.7935 7.49997C18.8331 7.39939 15.8977 8.07292 13.2773 9.45401C10.6569 10.8351 8.44221 12.876 6.85196 15.375C5.71728 17.2654 4.97124 19.3632 4.65752 21.5456C4.3438 23.728 4.46872 25.951 5.02496 28.0845C6.34395 33.0932 9.59715 37.3737 14.07 39.9855C19.0965 42.9675 25.521 44.9355 27.7365 42.195C28.917 40.743 28.542 39.8475 27.7185 38.262C27.2937 37.6877 27.02 37.0158 26.9225 36.3082C26.825 35.6006 26.9068 34.8798 27.1605 34.212C28.332 31.902 30.9375 31.9275 33.4605 31.962C36.213 31.9995 39.336 32.037 41.6685 29.4885C42.4392 28.6189 42.9932 27.5793 43.2852 26.4546C43.5772 25.3299 43.5989 24.1521 43.3485 23.0175C42.4815 18.2175 38.0445 13.038 32.3115 10.1175C29.0613 8.43062 25.4582 7.53628 21.7965 7.50747L21.7935 7.49997Z" fill="white"/>
</svg>
