<svg width="32" height="32" viewBox="0 0 32 32" fill="none" xmlns="http://www.w3.org/2000/svg">
<path d="M12.5 3.75C12.5 4.71797 13.282 5.5 14.25 5.5C21.0148 5.5 26.5 10.9852 26.5 17.75C26.5 18.718 27.282 19.5 28.25 19.5C29.218 19.5 30 18.718 30 17.75C30 9.04922 22.9508 2 14.25 2C13.282 2 12.5 2.78203 12.5 3.75ZM12.5 9C12.5 9.96797 13.282 10.75 14.25 10.75C18.1164 10.75 21.25 13.8836 21.25 17.75C21.25 18.718 22.032 19.5 23 19.5C23.968 19.5 24.75 18.718 24.75 17.75C24.75 11.9531 20.0469 7.25 14.25 7.25C13.282 7.25 12.5 8.03203 12.5 9ZM7.25 9.875C7.25 8.42578 6.07422 7.25 4.625 7.25C3.17578 7.25 2 8.42578 2 9.875V22.125C2 26.4727 5.52734 30 9.875 30C14.2227 30 17.75 26.4727 17.75 22.125C17.75 17.7773 14.2227 14.25 9.875 14.25H9V19.5H9.875C11.3242 19.5 12.5 20.6758 12.5 22.125C12.5 23.5742 11.3242 24.75 9.875 24.75C8.42578 24.75 7.25 23.5742 7.25 22.125V9.875Z" fill="#444444"/>
</svg>
