<svg width="190" height="317" viewBox="0 0 190 317" fill="none" xmlns="http://www.w3.org/2000/svg">
<path opacity="0.6" d="M11 2.9964L13.0035 7.19513L13.3052 7.82722L13.9995 7.91875L18.6119 8.52675L15.2378 11.7297L14.7298 12.2119L14.8573 12.9006L15.7044 17.4751L11.6156 15.2559L11 14.9218L10.3844 15.2559L6.2956 17.475L7.14266 12.9006L7.27018 12.2119L6.76223 11.7297L3.38812 8.52675L8.00048 7.91875L8.69484 7.82722L8.99646 7.19513L11 2.9964Z" stroke="#3D7DC5" stroke-width="2.58085"/>
<path opacity="0.6" d="M178 296.895L180.301 301.516L180.609 302.135L181.294 302.221L186.473 302.876L182.724 306.287L182.188 306.775L182.325 307.486L183.28 312.427L178.595 309.99L178 309.68L177.405 309.99L172.72 312.427L173.675 307.486L173.812 306.775L173.276 306.287L169.527 302.876L174.706 302.221L175.391 302.135L175.699 301.516L178 296.895Z" stroke="#3D7DC5" stroke-width="2.58085"/>
</svg>
