<svg width="384" height="405" viewBox="0 0 384 405" fill="none" xmlns="http://www.w3.org/2000/svg">
<path d="M362.5 3.4172L367.345 13.3336L367.699 14.0597L368.501 14.1629L379.578 15.5892L371.5 23.0798L370.891 23.644L371.046 24.4592L373.082 35.2022L363.203 29.9647L362.5 29.5923L361.797 29.9647L351.918 35.2022L353.954 24.4592L354.109 23.644L353.5 23.0798L345.422 15.5892L356.499 14.1629L357.301 14.0597L357.655 13.3336L362.5 3.4172Z" stroke="#3D7DC5" stroke-width="3"/>
<path opacity="0.8" d="M21.1272 360.744L29.4646 367.978L30.0751 368.508L30.8533 368.29L41.6079 365.274L37.1007 375.325L36.7613 376.082L37.2223 376.772L43.2983 385.863L32.1558 384.903L31.3634 384.835L30.8624 385.452L23.8162 394.133L21.4897 383.45L21.3132 382.639L20.5325 382.357L10.1666 378.62L19.8058 372.979L20.5032 372.571L20.5458 371.764L21.1272 360.744Z" stroke="#3D7DC5" stroke-width="3"/>
</svg>
