<svg width="32" height="32" viewBox="0 0 32 32" fill="none" xmlns="http://www.w3.org/2000/svg">
<path d="M13.4347 16C14.2347 16 14.8827 16.6 14.868 17.3333C14.868 18.0667 14.236 18.6667 13.4347 18.6667C12.648 18.6667 12 18.0667 12 17.3333C12 16.6 12.6333 16 13.4347 16ZM18.5653 16C19.3667 16 20 16.6 20 17.3333C20 18.0667 19.3667 18.6667 18.5653 18.6667C17.7787 18.6667 17.132 18.0667 17.132 17.3333C17.132 16.6 17.764 16 18.5653 16ZM25.188 4C26.7387 4 28 5.288 28 6.884V32L25.052 29.34L23.392 27.772L21.636 26.1053L22.364 28.696H6.812C5.26133 28.696 4 27.408 4 25.812V6.884C4 5.288 5.26133 4 6.812 4H25.1867H25.188ZM19.8947 22.284C22.9253 22.1867 24.092 20.156 24.092 20.156C24.092 15.648 22.116 11.9933 22.116 11.9933C20.1427 10.4827 18.2627 10.524 18.2627 10.524L18.0707 10.748C20.4027 11.476 21.4853 12.5267 21.4853 12.5267C20.2121 11.8093 18.8089 11.3524 17.3573 11.1827C16.4366 11.0787 15.5066 11.0876 14.588 11.2093C14.5053 11.2093 14.436 11.224 14.3547 11.2373C13.8747 11.28 12.708 11.4613 11.2413 12.12C10.7347 12.3573 10.432 12.5267 10.432 12.5267C10.432 12.5267 11.5707 11.42 14.0387 10.692L13.9013 10.524C13.9013 10.524 12.0227 10.4827 10.048 11.9947C10.048 11.9947 8.07333 15.648 8.07333 20.156C8.07333 20.156 9.22533 22.1853 12.256 22.284C12.256 22.284 12.7627 21.6547 13.176 21.1227C11.4333 20.5893 10.776 19.4693 10.776 19.4693C10.776 19.4693 10.912 19.568 11.1587 19.708C11.172 19.7213 11.1853 19.736 11.2133 19.7493C11.2547 19.7787 11.296 19.792 11.3373 19.82C11.68 20.016 12.0227 20.1693 12.3373 20.296C12.9 20.52 13.572 20.744 14.3547 20.8987C15.5271 21.1285 16.7325 21.133 17.9067 20.912C18.5906 20.7899 19.2578 20.5881 19.8947 20.3107C20.3747 20.128 20.9093 19.8613 21.472 19.484C21.472 19.484 20.7867 20.632 18.9893 21.1507C19.4013 21.6827 19.896 22.284 19.896 22.284H19.8947Z" fill="#444444"/>
</svg>
