<svg width="187" height="142" viewBox="0 0 187 142" fill="none" xmlns="http://www.w3.org/2000/svg">
<g filter="url(#filter0_d_57_1342)">
<path d="M10 18C10 11.3726 15.3726 6 22 6H165C171.627 6 177 11.3726 177 18V92.5537C177 99.1812 171.627 104.554 165 104.554H146.383L143.202 128L122.526 104.554H22C15.3726 104.554 10 99.1812 10 92.5537V18Z" fill="#FEFEFE"/>
</g>
<path fill-rule="evenodd" clip-rule="evenodd" d="M59.9194 54.9582C59.9194 36.136 75.1777 20.8777 93.9999 20.8777C112.822 20.8777 128.08 36.136 128.08 54.9582C128.08 73.7805 112.822 89.0387 93.9999 89.0387C75.1777 89.0387 59.9194 73.7805 59.9194 54.9582ZM102.82 83.7366C103.672 83.5753 104.559 83.6877 105.364 84.0066C116.963 79.4526 125.2 68.1529 125.2 54.9589C125.2 54.0107 125.151 53.074 125.067 52.1466C124.346 52.39 123.498 52.2618 122.787 51.9407C120.231 50.7865 119.098 47.7042 119.066 44.8998C119.059 44.269 119.093 43.6363 119.128 43.0042C119.191 41.8491 119.254 40.6959 119.062 39.5596C118.766 37.8013 117.637 36.0013 115.884 35.6723C115.844 35.4156 115.878 35.1528 115.983 34.9149C116.087 34.677 116.258 34.4741 116.474 34.3302C116.108 32.9061 114.88 31.7411 113.438 31.4509L113.23 32.2797C112.088 32.4676 111.055 31.3811 110.862 30.2406C110.778 29.7453 110.813 29.2492 110.907 28.7567C106.031 25.5995 100.229 23.7577 93.9999 23.7577C76.7962 23.7577 62.7994 37.7538 62.7994 54.9582C62.7994 70.0818 73.6167 82.7221 87.9195 85.5597C88.0153 84.8159 88.1276 84.0628 88.4559 83.3903C88.8058 82.6746 89.4495 82.0533 90.2394 81.9481C90.579 81.9026 90.9188 81.9537 91.2598 82.0049C91.5057 82.0419 91.7523 82.079 91.9998 82.0799C92.5902 82.0821 93.2792 81.7444 93.3044 81.1547C94.0575 81.8697 95.3247 81.6342 96.1772 81.0417C96.6201 80.7338 97.0013 80.3504 97.3828 79.9668C97.7356 79.612 98.0885 79.257 98.4906 78.9616C99.3272 78.346 100.563 78.0429 101.371 78.6959C100.183 79.1257 98.9845 79.7651 98.3638 80.8653C97.7432 81.9654 97.9722 83.6106 99.1076 84.1629C99.9311 84.5637 100.841 84.2909 101.753 84.0176C102.11 83.9105 102.467 83.8033 102.82 83.7366ZM99.8133 29.4436C99.5886 28.2549 98.5583 27.262 97.3617 27.082C97.313 27.0747 97.2632 27.068 97.2129 27.0613C96.8837 27.0174 96.5337 26.9708 96.3501 26.7047C96.0952 26.3383 96.363 25.8263 96.7065 25.5412C97.4293 24.9422 98.4525 24.8126 99.3762 24.9811C100.3 25.1495 101.152 25.5815 101.988 26.0078C102.693 26.3671 103.434 26.7602 103.834 27.442C104.115 27.9201 104.193 28.486 104.266 29.0354L104.591 31.4913C103.737 31.762 102.845 31.2386 102.144 30.6806C102.087 30.6354 102.03 30.5897 101.973 30.5437C101.323 30.0215 100.637 29.4701 99.8133 29.4436ZM107.86 29.1599C107.649 28.4486 106.977 27.8978 106.238 27.8308L106.169 27.8978C106.071 28.1909 106.08 28.5096 106.196 28.7963C106.314 29.082 106.531 29.3159 106.807 29.4559C107.015 29.5559 107.243 29.6097 107.475 29.6135C107.617 29.6186 107.784 29.5955 107.856 29.4717C107.91 29.3788 107.89 29.2622 107.86 29.1599ZM110.008 54.6271C110.466 55.283 111.34 56.0627 112.15 56.2363C112.374 56.2843 112.642 56.3184 112.926 56.3545C114.225 56.5195 115.85 56.7258 115.053 58.4978C114.88 58.8813 114.591 59.2265 114.3 59.5735C114.044 59.8786 113.788 60.1851 113.608 60.5203C113.443 60.8279 113.302 61.1556 113.162 61.4848C112.866 62.1741 112.569 62.8694 112.037 63.3981C111.677 63.7556 111.227 63.999 110.777 64.2422C110.32 64.4889 109.864 64.7355 109.502 65.1009C109.079 65.5277 108.822 66.0784 108.565 66.629C108.309 67.1773 108.053 67.7255 107.633 68.1515C107.166 68.6263 106.547 68.8983 105.931 69.1689C105.761 69.2435 105.592 69.3179 105.426 69.3964C103.697 70.2151 101.669 71.8891 101.032 73.7683C100.973 73.9418 100.941 74.1276 100.909 74.3121C100.821 74.8211 100.735 75.3191 100.092 75.5157C99.477 75.7043 99.1084 75.5258 99.1682 74.8396C99.3689 72.5345 99.8278 70.2592 100.536 68.0565C100.606 67.8408 100.677 67.6255 100.749 67.41C101.07 66.45 101.391 65.4876 101.499 64.4839C101.631 63.2548 101.397 61.9214 100.558 61.0142C100.375 60.8164 100.168 60.6434 99.9614 60.4705C99.7611 60.303 99.5609 60.1356 99.3827 59.9457C99.0651 59.603 98.8241 59.1966 98.6759 58.7535C98.5276 58.3104 98.4755 57.8408 98.523 57.376C98.5869 56.7894 98.8053 56.1969 99.0205 55.6129C99.4051 54.5698 99.7797 53.5535 99.2466 52.6442C98.9363 52.1143 98.379 51.7874 97.8462 51.4835C95.6445 50.2279 93.4953 49.1889 91.0523 48.5056C90.9492 48.4768 90.8367 48.4485 90.7186 48.4188C90.0784 48.2578 89.2762 48.0561 88.937 47.512C88.8232 47.3291 88.6965 45.6616 88.7008 45.6602C88.6255 45.6776 88.5449 45.6974 88.4603 45.7182C87.6149 45.9261 86.3646 46.2336 85.9281 45.2591C85.8063 44.9868 85.8107 44.686 85.8151 44.3831C85.8181 44.1776 85.8212 43.971 85.7848 43.7716C85.675 43.1707 85.2373 42.725 84.7967 42.2763C84.3968 41.869 83.9946 41.4593 83.8329 40.9291C83.6274 40.2542 83.8557 39.5475 84.076 38.8655C84.1082 38.7661 84.1401 38.6671 84.1706 38.5689C84.87 36.2846 84.7563 33.8286 83.8487 31.6187C83.7458 31.3703 83.6154 31.1075 83.3735 30.9902C83.1266 30.8699 82.8342 30.9362 82.5664 30.9974C82.4671 31.0202 82.3644 31.044 82.2587 31.0685C80.8203 31.4016 78.8413 31.86 77.4515 31.7915C75.6306 31.7015 76.9605 30.3674 78.1305 30.0218C78.2678 29.9812 78.4039 29.9418 78.5388 29.9027C79.5729 29.6029 80.5335 29.3245 81.3978 28.7423C81.5186 28.6612 81.8629 28.3339 82.236 27.9791C82.7638 27.4773 83.3492 26.9206 83.4412 26.9287C83.5309 26.9366 83.6627 26.8391 83.7945 26.7417C83.9259 26.6446 84.0573 26.5474 84.1468 26.555C84.1177 26.5632 84.1872 26.5697 84.3208 26.582C84.8281 26.629 86.2592 26.7615 86.7129 27.4039C86.7896 27.5127 86.8498 27.6326 86.9099 27.7523C86.9914 27.9146 87.0727 28.0765 87.1946 28.2095C87.381 28.4133 87.6431 28.5278 87.8966 28.6372C89.5598 29.3543 91.4001 30.0837 93.1317 29.5531C93.4378 29.4594 93.7315 29.3278 94.0249 29.1963C94.4193 29.0195 94.8131 28.843 95.2355 28.7596C96.6993 28.4702 98.1162 29.3356 99.3575 30.1629C99.5764 30.5719 98.9363 30.9369 98.4841 30.8361C98.3535 30.807 98.2219 30.7623 98.0905 30.7177C97.7666 30.6077 97.444 30.4982 97.1392 30.6237C96.8766 30.7323 96.7249 30.9782 96.5713 31.227C96.4449 31.4319 96.3173 31.6389 96.1254 31.7728C95.7711 32.0198 95.3213 31.9526 94.8708 31.8854C94.4241 31.8187 93.9768 31.7519 93.6213 31.991C93.1144 32.3315 93.1382 33.1358 93.5075 33.6225C93.8776 34.1092 94.4738 34.3562 95.0418 34.5815L97.3386 35.4938C97.2328 34.7515 97.1406 34.0063 97.0621 33.2603C97.0333 32.9896 97.0218 32.675 97.2227 32.4907C97.3754 32.3503 97.6021 32.3351 97.8095 32.3351C100.496 32.3359 103.14 33.7759 104.599 36.0323C104.333 36.1874 104.056 36.3258 103.78 36.464C103.281 36.7136 102.783 36.9628 102.348 37.3089C102.039 37.5559 101.767 37.8467 101.497 38.1369C101.282 38.3681 101.06 38.6026 100.835 38.8397C100.06 39.6584 99.2558 40.508 98.5965 41.3589C98.2786 41.7685 98.3363 42.3779 98.392 42.9652C98.4504 43.5817 98.5065 44.1739 98.1234 44.4851C97.2602 45.1871 96.4804 43.9811 96.6136 43.2093C95.9044 43.1503 91.9833 43.0869 91.9127 44.0978C91.9045 44.2158 91.8897 44.3618 91.8733 44.5235C91.8137 45.1108 91.7332 45.9044 91.871 46.3075C92.0639 46.8719 92.835 47.2953 93.4053 47.3615C93.8297 47.4107 94.068 47.2172 94.295 47.0328C94.49 46.8744 94.6768 46.7227 94.9662 46.7373C95.2945 46.7539 95.4069 47.1945 95.3414 47.5171C95.3285 47.5806 95.3126 47.6452 95.2966 47.7101C95.2314 47.9752 95.1646 48.2468 95.2924 48.4775C96.2529 50.2142 98.7693 50.4403 100.439 50.4503C102.987 50.4659 105.494 51.0884 107.753 52.2662C108.27 52.5369 108.783 52.8458 109.158 53.2929C109.357 53.5299 109.511 53.7984 109.665 54.0672C109.774 54.2574 109.883 54.4477 110.008 54.6271Z" fill="#094074"/>
<defs>
<filter id="filter0_d_57_1342" x="0" y="0" width="187" height="142" filterUnits="userSpaceOnUse" color-interpolation-filters="sRGB">
<feFlood flood-opacity="0" result="BackgroundImageFix"/>
<feColorMatrix in="SourceAlpha" type="matrix" values="0 0 0 0 0 0 0 0 0 0 0 0 0 0 0 0 0 0 127 0" result="hardAlpha"/>
<feOffset dy="4"/>
<feGaussianBlur stdDeviation="5"/>
<feComposite in2="hardAlpha" operator="out"/>
<feColorMatrix type="matrix" values="0 0 0 0 0.836424 0 0 0 0 0.898726 0 0 0 0 0.920833 0 0 0 1 0"/>
<feBlend mode="normal" in2="BackgroundImageFix" result="effect1_dropShadow_57_1342"/>
<feBlend mode="normal" in="SourceGraphic" in2="effect1_dropShadow_57_1342" result="shape"/>
</filter>
</defs>
</svg>
