<svg width="32" height="32" viewBox="0 0 32 32" fill="none" xmlns="http://www.w3.org/2000/svg">
<path d="M3.8125 5C2.25977 5 1 6.23177 1 7.75C1 8.6151 1.41602 9.42865 2.125 9.95L14.875 19.3C15.543 19.787 16.457 19.787 17.125 19.3L29.875 9.95C30.584 9.42865 31 8.6151 31 7.75C31 6.23177 29.7402 5 28.1875 5H3.8125ZM1 11.4167V23.3333C1 25.3557 2.68164 27 4.75 27H27.25C29.3184 27 31 25.3557 31 23.3333V11.4167L18.25 20.7667C17.6013 21.2436 16.8116 21.5014 16 21.5014C15.1884 21.5014 14.3987 21.2436 13.75 20.7667L1 11.4167Z" fill="#444444"/>
</svg>
