<svg width="48" height="48" viewBox="0 0 48 48" fill="none" xmlns="http://www.w3.org/2000/svg">
<path fill-rule="evenodd" clip-rule="evenodd" d="M30.7642 33.6011C28.6912 34.501 26.4039 35 24 35C21.8184 35 19.7327 34.5891 17.8162 33.8403L16.79 42.1586L23.9814 39.5092L24.5428 39.3024L25.0923 39.5386L32.1146 42.5569L30.7642 33.6011ZM33.5651 32.0558C38.0533 28.9956 41 23.8419 41 18C41 8.61116 33.3888 1 24 1C14.6112 1 7 8.61116 7 18C7 24.0712 10.1826 29.3991 14.9704 32.4064L13.5113 44.233L13.21 46.6747L15.5186 45.8242L24.4572 42.531L33.4077 46.3781L35.8854 47.4431L35.4832 44.7763L33.5651 32.0558ZM24 32C31.732 32 38 25.732 38 18C38 10.268 31.732 4 24 4C16.268 4 10 10.268 10 18C10 25.732 16.268 32 24 32ZM33 18C33 22.9706 28.9706 27 24 27C19.0294 27 15 22.9706 15 18C15 13.0294 19.0294 9 24 9C28.9706 9 33 13.0294 33 18ZM24 24C27.3137 24 30 21.3137 30 18C30 14.6863 27.3137 12 24 12C20.6863 12 18 14.6863 18 18C18 21.3137 20.6863 24 24 24Z" fill="white"/>
</svg>
