<svg width="48" height="48" viewBox="0 0 48 48" fill="none" xmlns="http://www.w3.org/2000/svg">
<path fill-rule="evenodd" clip-rule="evenodd" d="M15.2162 5H32.7838C34.0078 5 35 5.99223 35 7.21622V9.72974H13V7.21622C13 5.99223 13.9922 5 15.2162 5ZM11 11.7297V9.72974V7.21622C11 4.88766 12.8877 3 15.2162 3H32.7838C35.1123 3 37 4.88766 37 7.21622V9.72974V11.7297V35.4325H37.0001V37.4325H37V40.2432C37 42.5718 35.1123 44.4595 32.7838 44.4595H15.2162C12.8877 44.4595 11 42.5718 11 40.2432V11.7297ZM35 11.7297V35.4325H13V11.7297H35ZM13 40.2432V37.4325H35V40.2432C35 41.4672 34.0078 42.4595 32.7838 42.4595H15.2162C13.9922 42.4595 13 41.4672 13 40.2432ZM22.9805 27.5677L30.7102 19.1352L29.2359 17.7838L22.2464 25.4087L19.4697 22.3544L17.9899 23.6997L21.5034 27.5646L22.2402 28.3752L22.9805 27.5677Z" fill="white"/>
</svg>
