<svg width="48" height="48" viewBox="0 0 48 48" fill="none" xmlns="http://www.w3.org/2000/svg">
<path d="M12 30V39H42V18H36V15H43.077C43.746 15 43.989 15.069 44.232 15.201C44.4747 15.3283 44.6734 15.526 44.802 15.768C44.931 16.011 45 16.254 45 16.923V40.077C45 40.746 44.931 40.989 44.799 41.232C44.6717 41.4747 44.4741 41.6734 44.232 41.802C43.989 41.931 43.746 42 43.077 42H10.923C10.254 42 10.011 41.931 9.768 41.799C9.52527 41.6717 9.32662 41.4741 9.198 41.232C9.072 40.989 9 40.746 9 40.08V30H12Z" fill="white"/>
<path d="M36 9H6V30H36V9ZM39 7.923V31.077C39 31.746 38.931 31.989 38.799 32.232C38.6717 32.4747 38.4741 32.6734 38.232 32.802C37.989 32.931 37.746 33 37.077 33H4.923C4.254 33 4.011 32.931 3.768 32.799C3.52527 32.6717 3.32662 32.4741 3.198 32.232C3.072 31.989 3 31.746 3 31.08V7.923C3 7.254 3.069 7.011 3.201 6.768C3.32834 6.52527 3.52595 6.32662 3.768 6.198C4.011 6.072 4.254 6 4.92 6H37.074C37.743 6 37.986 6.069 38.229 6.201C38.4717 6.32834 38.6704 6.52595 38.799 6.768C38.928 7.011 38.997 7.254 38.997 7.923H39Z" fill="white"/>
<path d="M21 27C19.0109 27 17.1032 26.2098 15.6967 24.8033C14.2902 23.3968 13.5 21.4891 13.5 19.5C13.5 17.5109 14.2902 15.6032 15.6967 14.1967C17.1032 12.7902 19.0109 12 21 12C22.9891 12 24.8968 12.7902 26.3033 14.1967C27.7098 15.6032 28.5 17.5109 28.5 19.5C28.5 21.4891 27.7098 23.3968 26.3033 24.8033C24.8968 26.2098 22.9891 27 21 27ZM21 24C22.1935 24 23.3381 23.5259 24.182 22.682C25.0259 21.8381 25.5 20.6935 25.5 19.5C25.5 18.3065 25.0259 17.1619 24.182 16.318C23.3381 15.4741 22.1935 15 21 15C19.8065 15 18.6619 15.4741 17.818 16.318C16.9741 17.1619 16.5 18.3065 16.5 19.5C16.5 20.6935 16.9741 21.8381 17.818 22.682C18.6619 23.5259 19.8065 24 21 24Z" fill="white"/>
</svg>
