<svg width="515" height="637" viewBox="0 0 515 637" fill="none" xmlns="http://www.w3.org/2000/svg">
<path opacity="0.6" d="M395 545.483L399.119 554.114L399.469 554.849L400.276 554.955L409.758 556.205L402.822 562.789L402.231 563.35L402.379 564.15L404.121 573.553L395.716 568.992L395 568.603L394.284 568.992L385.879 573.553L387.621 564.15L387.769 563.35L387.178 562.789L380.242 556.205L389.724 554.955L390.531 554.849L390.881 554.114L395 545.483Z" stroke="#3D7DC5" stroke-width="3"/>
<path opacity="0.6" d="M145 500.483L149.119 509.114L149.469 509.849L150.276 509.955L159.758 511.205L152.822 517.789L152.231 518.35L152.379 519.15L154.121 528.553L145.716 523.992L145 523.603L144.284 523.992L135.879 528.553L137.621 519.15L137.769 518.35L137.178 517.789L130.242 511.205L139.724 509.955L140.531 509.849L140.881 509.114L145 500.483Z" stroke="#3D7DC5" stroke-width="3"/>
<path opacity="0.6" d="M21.5 598.417L26.3446 608.334L26.6993 609.06L27.5008 609.163L38.5783 610.589L30.4995 618.08L29.8911 618.644L30.0456 619.459L32.0823 630.202L22.2026 624.965L21.5 624.592L20.7974 624.965L10.9177 630.202L12.9544 619.459L13.1089 618.644L12.5005 618.08L4.4217 610.589L15.4992 609.163L16.3007 609.06L16.6554 608.334L21.5 598.417Z" stroke="#3D7DC5" stroke-width="3"/>
<path opacity="0.6" d="M42.5 3.48304L45.6105 10.0015L45.9611 10.7363L46.7682 10.8427L53.9288 11.7866L48.6906 16.7591L48.1001 17.3196L48.2483 18.1201L49.5634 25.2219L43.2155 21.7767L42.5 21.3883L41.7845 21.7767L35.4366 25.2219L36.7517 18.1201L36.8999 17.3196L36.3094 16.7591L31.0712 11.7866L38.2318 10.8427L39.0389 10.7363L39.3895 10.0015L42.5 3.48304Z" stroke="#3D7DC5" stroke-width="3"/>
<path opacity="0.6" d="M499.5 79.483L502.61 86.0015L502.961 86.7363L503.768 86.8427L510.929 87.7866L505.691 92.7591L505.1 93.3196L505.248 94.1201L506.563 101.222L500.216 97.7767L499.5 97.3883L498.784 97.7767L492.437 101.222L493.752 94.1201L493.9 93.3196L493.309 92.7591L488.071 87.7866L495.232 86.8427L496.039 86.7363L496.39 86.0015L499.5 79.483Z" stroke="#3D7DC5" stroke-width="3"/>
</svg>
