<svg width="32" height="32" viewBox="0 0 32 32" fill="none" xmlns="http://www.w3.org/2000/svg">
<path d="M29.9466 8.00016C28.9199 8.46683 27.8132 8.7735 26.6666 8.92016C27.8399 8.2135 28.7466 7.0935 29.1732 5.74683C28.0666 6.4135 26.8399 6.88016 25.5466 7.14683C24.4932 6.00016 23.0132 5.3335 21.3332 5.3335C18.1999 5.3335 15.6399 7.8935 15.6399 11.0535C15.6399 11.5068 15.6932 11.9468 15.7866 12.3602C11.0399 12.1202 6.81322 9.84016 3.99989 6.38683C3.50656 7.22683 3.22656 8.2135 3.22656 9.2535C3.22656 11.2402 4.22656 13.0002 5.77322 14.0002C4.82656 14.0002 3.94656 13.7335 3.17322 13.3335V13.3735C3.17322 16.1468 5.14656 18.4668 7.75989 18.9868C6.92086 19.2164 6.04002 19.2484 5.18656 19.0802C5.5487 20.2168 6.25794 21.2114 7.21458 21.9241C8.17122 22.6368 9.32715 23.0318 10.5199 23.0535C8.49806 24.6541 5.99188 25.5192 3.41322 25.5068C2.95989 25.5068 2.50656 25.4802 2.05322 25.4268C4.58656 27.0535 7.59989 28.0002 10.8266 28.0002C21.3332 28.0002 27.1066 19.2802 27.1066 11.7202C27.1066 11.4668 27.1066 11.2268 27.0932 10.9735C28.2132 10.1735 29.1732 9.16016 29.9466 8.00016Z" fill="#444444"/>
</svg>
