<svg width="32" height="32" viewBox="0 0 32 32" fill="none" xmlns="http://www.w3.org/2000/svg">
<path d="M29.4098 9.2602C29.2504 8.66824 28.9384 8.12851 28.5049 7.69503C28.0715 7.26155 27.5317 6.94953 26.9398 6.7902C24.7598 6.2002 15.9998 6.2002 15.9998 6.2002C15.9998 6.2002 7.23978 6.2002 5.05978 6.7902C4.46782 6.94953 3.92809 7.26155 3.49461 7.69503C3.06113 8.12851 2.74911 8.66824 2.58978 9.2602C2.18272 11.4835 1.98519 13.74 1.99978 16.0002C1.98519 18.2604 2.18272 20.5169 2.58978 22.7402C2.74911 23.3322 3.06113 23.8719 3.49461 24.3054C3.92809 24.7388 4.46782 25.0509 5.05978 25.2102C7.23978 25.8002 15.9998 25.8002 15.9998 25.8002C15.9998 25.8002 24.7598 25.8002 26.9398 25.2102C27.5317 25.0509 28.0715 24.7388 28.5049 24.3054C28.9384 23.8719 29.2504 23.3322 29.4098 22.7402C29.8168 20.5169 30.0144 18.2604 29.9998 16.0002C30.0144 13.74 29.8168 11.4835 29.4098 9.2602ZM13.1998 20.2002V11.8002L20.4698 16.0002L13.1998 20.2002Z" fill="#444444"/>
</svg>
